<svg width="20" height="20" viewBox="0 0 20 20" fill="none" xmlns="http://www.w3.org/2000/svg">
<path id="Vector" d="M3.05556 0C1.3779 0 0 1.3779 0 3.05556V16.9444C0 18.6221 1.3779 20 3.05556 20H16.9444C18.6221 20 20 18.6221 20 16.9444V3.05556C20 1.3779 18.6221 0 16.9444 0H3.05556ZM3.05556 1.66667H16.9444C17.7212 1.66667 18.3333 2.27876 18.3333 3.05556V16.9444C18.3333 17.7212 17.7212 18.3333 16.9444 18.3333H3.05556C2.27876 18.3333 1.66667 17.7212 1.66667 16.9444V3.05556C1.66667 2.27876 2.27876 1.66667 3.05556 1.66667ZM5.27778 3.88889C4.90942 3.88889 4.55615 4.03522 4.29569 4.29569C4.03522 4.55615 3.88889 4.90942 3.88889 5.27778C3.88889 5.64613 4.03522 5.9994 4.29569 6.25987C4.55615 6.52034 4.90942 6.66667 5.27778 6.66667C5.64613 6.66667 5.9994 6.52034 6.25987 6.25987C6.52034 5.9994 6.66667 5.64613 6.66667 5.27778C6.66667 4.90942 6.52034 4.55615 6.25987 4.29569C5.9994 4.03522 5.64613 3.88889 5.27778 3.88889ZM4.44444 7.77778C4.13722 7.77778 3.88889 8.02611 3.88889 8.33333V15.5556C3.88889 15.8628 4.13722 16.1111 4.44444 16.1111H6.11111C6.41833 16.1111 6.66667 15.8628 6.66667 15.5556V8.33333C6.66667 8.02611 6.41833 7.77778 6.11111 7.77778H4.44444ZM8.33333 7.77778C8.02611 7.77778 7.77778 8.02611 7.77778 8.33333V15.5556C7.77778 15.8628 8.02611 16.1111 8.33333 16.1111H10C10.3072 16.1111 10.5556 15.8628 10.5556 15.5556V11.3889C10.5556 10.6228 11.1783 10 11.9444 10C12.7106 10 13.3333 10.6228 13.3333 11.3889V15.5556C13.3333 15.8628 13.5817 16.1111 13.8889 16.1111H15.5556C15.8628 16.1111 16.1111 15.8628 16.1111 15.5556V11.1111C16.1111 9.27278 14.6161 7.77778 12.7778 7.77778C11.9233 7.77778 11.1461 8.10334 10.5556 8.6339V8.33333C10.5556 8.02611 10.3072 7.77778 10 7.77778H8.33333Z" fill="#121212"/>
</svg>
