<svg width="20" height="20" viewBox="0 0 20 20" fill="none" xmlns="http://www.w3.org/2000/svg">
<path id="Vector" d="M10 0C4.48241 0 0 4.48241 0 10C0 15.5176 4.48241 20 10 20C15.5176 20 20 15.5176 20 10C20 4.48241 15.5176 0 10 0ZM10 0.869565C15.0476 0.869565 19.1304 4.95238 19.1304 10C19.1304 15.0476 15.0476 19.1304 10 19.1304C4.95238 19.1304 0.869565 15.0476 0.869565 10C0.869565 4.95238 4.95238 0.869565 10 0.869565ZM8.26087 3.91304L3.91304 7.82609H6.86141C6.87011 9.06391 7.81197 10.3176 9.46501 10.3176C9.62154 10.3176 9.79552 10.3002 9.96943 10.2828C9.89117 10.4784 9.80893 10.6392 9.80893 10.9044C9.80893 11.4044 10.061 11.7044 10.2828 11.9913C9.57408 12.0392 8.25642 12.1215 7.28685 12.7259C6.36077 13.2868 6.07846 14.1 6.07846 14.6739C6.07846 15.8565 7.17412 16.9565 9.44803 16.9565C12.1437 16.9565 13.5742 15.4394 13.5742 13.9394C13.5742 12.8394 12.9476 12.2956 12.2563 11.7043L11.6958 11.2568C11.5219 11.1177 11.2823 10.9219 11.2823 10.574C11.2823 10.2219 11.522 9.99555 11.7264 9.78685C12.3829 9.26511 13.0435 8.67836 13.0435 7.49575C13.0435 7.04228 12.9375 6.67321 12.7862 6.36973L14.3478 5.03057V6.64232C14.0891 6.79276 13.913 7.07 13.913 7.3913V10C13.913 10.48 14.3026 10.8696 14.7826 10.8696C15.2626 10.8696 15.6522 10.48 15.6522 10V7.3913C15.6522 7.07043 15.4761 6.79319 15.2174 6.64232V4.34783C15.2174 4.32913 15.209 4.31344 15.2064 4.29518L15.6522 3.91304H8.26087ZM9.6824 5.32184C10.9868 5.32184 11.661 7.1087 11.661 8.26087C11.661 8.54348 11.6261 9.05214 11.2695 9.42171C11.0174 9.67823 10.5961 9.86923 10.2004 9.86923C8.85693 9.86923 8.23879 8.09572 8.23879 7.02615C8.23879 6.61311 8.32174 6.18302 8.58696 5.85258C8.83913 5.52649 9.27806 5.32184 9.6824 5.32184ZM10.4518 12.4389C10.6126 12.4389 10.6917 12.4393 10.8178 12.4567C12.0091 13.3176 12.5221 13.7479 12.5221 14.561C12.5221 15.5479 11.7261 16.2874 10.2174 16.2874C8.53913 16.2874 7.46094 15.4741 7.46094 14.3393C7.46094 13.2046 8.46077 12.8257 8.80859 12.6953C9.46512 12.4692 10.3126 12.4389 10.4518 12.4389Z" fill="#121212"/>
</svg>
